<svg width="1309.79375px" height="118.39999999999999px" xmlns="http://www.w3.org/2000/svg" viewBox="-404.896875 15.800000000000004 1309.79375 118.39999999999999" style="background:#596886" preserveAspectRatio="xMidYMid"><defs><filter id="editing-hover" x="-100%" y="-100%" width="300%" height="300%"><feFlood flood-color="#052b4a" result="flood"></feFlood><feComposite operator="in" in2="SourceAlpha" in="flood" result="shadow"></feComposite><feOffset dx="-4" dy="-4" in="SourceGraphic" result="offset-1"></feOffset><feOffset dx="4" dy="4" in="shadow" result="offset-2"></feOffset><feMerge><feMergeNode in="offset-2"></feMergeNode><feMergeNode in="offset-1"></feMergeNode></feMerge></filter></defs><g filter="url(#editing-hover)"><g transform="translate(-228.24001455307007, 102.78000068664551)"><path d="M12.74-25.22L16.58-25.09L18.94-25.02L18.94-25.02Q22.02-24.90 23.23-24.90L23.23-24.90L23.23-24.90Q28.22-24.90 30.85-24.96L30.85-24.96L30.85-24.96Q33.98-24.96 35.65-25.02L35.65-25.02L35.65-26.94L35.58-30.46L35.58-30.46Q35.58-32.90 35.84-40.45L35.84-40.45L35.97-44.93L35.97-44.93Q36.03-45.50 36.67-45.50L36.67-45.50L37.38-45.44L37.38-45.44Q37.63-45.38 38.34-45.38L38.34-45.38L38.34-45.38Q39.10-45.38 39.42-45.25L39.42-45.25L39.42-45.25Q40.06-45.06 40.06-44.61L40.06-44.61L39.94-44.10L39.94-44.10Q39.87-43.65 39.74-42.40L39.74-42.40L39.74-42.40Q39.62-41.15 39.36-38.59L39.36-38.59L39.36-38.59Q39.17-36.67 39.04-29.86L39.04-29.86L39.04-29.86Q38.91-23.04 38.91-19.20L38.91-19.20L38.91-19.20Q38.91-16.51 38.66-9.86L38.66-9.86L38.53-5.63L38.46-3.07L38.46-3.07Q38.46-2.11 38.59-1.22L38.59-1.22L38.66-0.83L38.66-0.83Q38.66-0.45 38.37-0.42L38.37-0.42L38.37-0.42Q38.08-0.38 38.02-0.38L38.02-0.38L38.02-0.38Q37.38-0.26 35.71-0.26L35.71-0.26L35.71-0.26Q35.20-0.26 35.20-0.90L35.20-0.90L35.26-10.24L35.26-10.24Q35.20-11.26 35.23-12.38L35.23-12.38L35.23-12.38Q35.26-13.50 35.26-14.40L35.26-14.40L35.26-17.09L35.26-21.82L30.08-21.70L30.08-21.70Q27.33-21.63 22.66-21.63L22.66-21.63L16.64-21.63L16.64-21.63Q14.21-21.63 12.86-21.70L12.86-21.70L12.86-21.70Q12.86-20.61 12.80-20.03L12.80-20.03L12.80-20.03Q12.67-17.98 12.67-16.13L12.67-16.13L12.61-9.22L12.61-9.22Q12.61-4.16 12.93-2.56L12.93-2.56L12.93-2.56Q13.06-1.79 13.06-1.60L13.06-1.60L13.06-1.60Q13.06-0.70 12.58-0.48L12.58-0.48L12.58-0.48Q12.10-0.26 11.55-0.29L11.55-0.29L11.55-0.29Q11.01-0.32 10.82-0.32L10.82-0.32L10.82-0.32Q8.58-0.45 5.70-0.13L5.70-0.13L5.70-0.13Q4.61 0 4.38-0.64L4.38-0.64L4.38-0.64Q4.16-1.28 4.19-2.43L4.19-2.43L4.19-2.43Q4.22-3.58 4.22-4.16L4.22-4.16L4.10-26.30L4.22-42.88L4.22-42.88Q4.22-44.16 4.51-44.51L4.51-44.51L4.51-44.51Q4.80-44.86 5.44-44.86L5.44-44.86L6.85-44.80L6.85-44.80Q7.17-44.80 8.32-44.93L8.32-44.93L8.32-44.93Q8.64-44.99 9.41-44.99L9.41-44.99L11.07-44.93L11.07-44.93Q11.58-44.86 12.48-44.86L12.48-44.86L12.48-44.86Q13.18-44.86 13.34-44.45L13.34-44.45L13.34-44.45Q13.50-44.03 13.47-43.58L13.47-43.58L13.47-43.58Q13.44-43.14 13.44-42.94L13.44-42.94L13.44-42.94Q13.44-40 13.18-35.33L13.18-35.33L12.93-28.99L12.74-25.22ZM71.62-44.67L71.62-44.67Q75.46-42.11 77.79-37.76L77.79-37.76L77.79-37.76Q80.13-33.41 81.06-29.28L81.06-29.28L81.06-29.28Q81.98-25.15 81.98-22.78L81.98-22.78L81.98-22.78Q81.98-18.82 80.74-13.57L80.74-13.57L80.74-13.57Q79.49-8.32 75.39-3.81L75.39-3.81L75.39-3.81Q71.30 0.70 63.55 0.70L63.55 0.70L63.55 0.70Q52.93 0.70 48.45-11.65L48.45-11.65L48.45-11.65Q46.46-17.22 46.21-24.06L46.21-24.06L46.21-24.06Q46.21-29.70 48.58-34.78L48.58-34.78L48.58-34.78Q50.94-39.87 54.82-42.94L54.82-42.94L54.82-42.94Q58.69-46.02 62.78-46.02L62.78-46.02L62.78-46.02Q66.50-46.02 68.32-45.82L68.32-45.82L68.32-45.82Q70.14-45.63 71.62-44.67L71.62-44.67ZM63.23-2.88L63.23-2.88Q70.02-2.88 73.34-8.54L73.34-8.54L73.34-8.54Q76.67-14.21 76.67-22.78L76.67-22.78L76.67-22.78Q76.67-28.03 75.10-32.48L75.10-32.48L75.10-32.48Q73.54-36.93 70.69-39.58L70.69-39.58L70.69-39.58Q67.84-42.24 64.13-42.24L64.13-42.24L64.13-42.24Q63.81-42.24 62.43-42.24L62.43-42.24L62.43-42.24Q61.06-42.24 60.03-41.79L60.03-41.79L60.03-41.79Q59.01-41.34 58.18-40.45L58.18-40.45L58.18-40.45Q56.06-38.34 54.62-36.58L54.62-36.58L54.62-36.58Q53.18-34.82 51.74-31.36L51.74-31.36L51.74-31.36Q50.30-27.90 50.30-23.36L50.30-23.36L50.30-23.36Q50.30-17.98 51.62-13.34L51.62-13.34L51.62-13.34Q52.93-8.70 55.81-5.79L55.81-5.79L55.81-5.79Q58.69-2.88 63.23-2.88L63.23-2.88ZM106.24-49.22L106.24-49.22Q106.37-48.58 106.37-48.38L106.37-48.38L106.37-48.38Q106.37-47.36 105.15-47.36L105.15-47.36L105.15-47.36Q104.83-47.36 103.94-47.49L103.94-47.49L103.94-47.49Q103.23-47.42 101.70-47.74L101.70-47.74L100.29-48.26L100.29-48.26Q98.82-48.90 97.76-49.15L97.76-49.15L97.76-49.15Q96.70-49.41 96.32-49.60L96.32-49.60L96.32-49.60Q95.49-49.86 94.37-50.30L94.37-50.30L94.37-50.30Q93.25-50.75 93.12-51.07L93.12-51.07L93.12-51.07Q92.93-51.46 92.93-51.78L92.93-51.78L92.93-51.78Q92.93-52.67 94.14-53.18L94.14-53.18L94.14-53.18Q95.04-53.70 95.55-53.70L95.55-53.70L95.55-53.70Q96.00-53.70 96.61-53.47L96.61-53.47L96.61-53.47Q97.22-53.25 97.54-53.18L97.54-53.18L97.54-53.18Q99.33-52.42 100.38-52.06L100.38-52.06L100.38-52.06Q101.44-51.71 103.04-51.33L103.04-51.33L103.04-51.33Q103.30-51.20 104.06-50.91L104.06-50.91L104.06-50.91Q104.83-50.62 105.47-50.21L105.47-50.21L105.47-50.21Q106.11-49.79 106.24-49.22L106.24-49.22ZM121.02-1.28L121.02-1.28Q121.34-0.64 121.34-0.45L121.34-0.45L121.34-0.45Q121.34 0.06 120.19 0.06L120.19 0.06L115.58 0.06L115.58 0.06Q115.33 0.06 115.07-0.38L115.07-0.38L115.07-0.38Q114.82-0.83 114.62-1.28L114.62-1.28L114.62-1.28Q114.43-1.73 114.30-2.05L114.30-2.05L114.30-2.05Q113.98-2.69 113.12-4.99L113.12-4.99L113.12-4.99Q112.26-7.30 111.81-8.64L111.81-8.64L111.81-8.64Q111.62-9.28 111.04-10.53L111.04-10.53L111.04-10.53Q110.46-11.78 110.21-12.29L110.21-12.29L110.21-12.29Q109.95-13.06 109.73-13.31L109.73-13.31L109.73-13.31Q109.50-13.57 109.06-13.57L109.06-13.57L109.06-13.57Q108.61-13.57 107.94-13.50L107.94-13.50L107.94-13.50Q107.26-13.44 106.50-13.38L106.50-13.38L106.50-13.38Q105.98-13.25 103.30-13.25L103.30-13.25L103.30-13.25Q101.44-13.25 99.65-13.12L99.65-13.12L99.65-13.12Q99.07-13.06 97.60-13.06L97.60-13.06L94.21-13.12L94.21-13.12Q93.89-13.12 93.73-12.86L93.73-12.86L93.73-12.86Q93.57-12.61 93.50-12.26L93.50-12.26L93.50-12.26Q93.44-11.90 93.38-11.71L93.38-11.71L92.99-10.11L92.99-10.11Q92.80-9.22 92.51-8.03L92.51-8.03L92.51-8.03Q92.22-6.85 92.03-5.82L92.03-5.82L91.33-3.07L90.82-1.22L90.82-1.22Q90.62-0.45 90.46-0.22L90.46-0.22L90.46-0.22Q90.30 0 89.98 0L89.98 0L86.21 0L86.21 0Q85.89 0 85.89-0.26L85.89-0.26L85.89-0.26Q85.89-0.38 86.14-1.15L86.14-1.15L86.14-1.15Q86.66-2.37 87.04-3.58L87.04-3.58L87.04-3.58Q89.41-11.52 89.86-13.95L89.86-13.95L89.86-13.95Q90.43-17.15 92.22-22.21L92.22-22.21L92.22-22.21Q92.80-24.38 93.31-26.18L93.31-26.18L93.31-26.18Q93.50-27.07 93.89-28.35L93.89-28.35L93.89-28.35Q95.10-32.83 96.32-36.74L96.32-36.74L97.92-41.86L97.92-41.86Q98.43-43.84 99.20-45.95L99.20-45.95L99.20-45.95Q99.58-46.91 100.10-46.40L100.10-46.40L100.10-46.40Q100.48-46.14 100.67-45.50L100.67-45.50L100.67-45.50Q100.86-44.86 100.93-44.61L100.93-44.61L100.93-44.61Q101.12-43.84 104.32-36.93L104.32-36.93L104.32-36.93Q105.60-34.30 107.07-30.08L107.07-30.08L107.07-30.08Q107.71-28.22 110.59-22.08L110.59-22.08L110.59-22.08Q112.06-19.07 112.51-17.92L112.51-17.92L112.51-17.92Q113.54-15.68 118.02-7.04L118.02-7.04L118.78-5.44L118.78-5.44Q120.26-2.18 121.02-1.28L121.02-1.28ZM104.26-22.40L104.26-22.40Q104.70-22.46 105.02-22.46L105.02-22.46L105.02-22.46Q105.34-22.46 105.54-22.53L105.54-22.53L105.54-22.53Q105.73-22.59 105.73-22.72L105.73-22.72L105.73-22.72Q105.73-22.85 105.54-23.23L105.54-23.23L105.54-23.23Q105.22-23.81 104.06-26.46L104.06-26.46L104.06-26.46Q102.91-29.12 102.46-30.46L102.46-30.46L102.46-30.46Q101.82-32 101.47-33.02L101.47-33.02L101.47-33.02Q101.12-34.05 100.93-34.43L100.93-34.43L100.93-34.43Q100.80-34.75 100.64-35.07L100.64-35.07L100.64-35.07Q100.48-35.39 100.35-35.58L100.35-35.58L100.35-35.58Q100.22-35.78 100.10-35.78L100.10-35.78L100.10-35.78Q99.90-35.78 99.68-34.82L99.68-34.82L99.68-34.82Q99.46-33.86 99.33-33.34L99.33-33.34L99.33-33.34Q98.18-29.63 97.66-27.71L97.66-27.71L97.66-27.71Q97.41-26.75 96.93-25.38L96.93-25.38L96.93-25.38Q96.45-24 96.26-23.49L96.26-23.49L96.26-23.49Q96.06-22.85 96.06-22.46L96.06-22.46L96.06-22.46Q96.06-22.08 96.64-22.08L96.64-22.08L96.64-22.08Q97.98-22.08 100.77-22.18L100.77-22.18L100.77-22.18Q103.55-22.27 104.26-22.40L104.26-22.40ZM143.94-39.87L143.94-39.87Q143.94-43.84 144-44.80L144-44.80L144-44.80Q144-46.02 144.83-46.27L144.83-46.27L144.83-46.27Q145.66-46.53 147.26-46.53L147.26-46.53L147.26-46.53Q148.67-46.53 150.88-46.69L150.88-46.69L150.88-46.69Q153.09-46.85 154.30-47.04L154.30-47.04L154.30-47.04Q155.20-47.10 155.58-46.75L155.58-46.75L155.58-46.75Q155.97-46.40 155.97-45.57L155.97-45.57L155.97-45.57Q155.97-45.31 155.84-44.16L155.84-44.16L155.84-44.16Q155.71-43.20 155.71-31.42L155.71-31.42L155.71-16.96L155.71-16.96Q155.71-13.70 155.81-9.76L155.81-9.76L155.81-9.76Q155.90-5.82 156.03-2.69L156.03-2.69L156.03-2.69Q156.16 0.45 156.16-0.96L156.16-0.96L156.16-0.96Q156.16 0.06 155.14 0.06L155.14 0.06L155.14 0.06Q154.69 0.06 154.37 0L154.37 0L154.37 0Q154.11-0.06 153.34-0.06L153.34-0.06L153.34-0.06Q152.58-0.06 150.91 0.06L150.91 0.06L150.91 0.06Q149.12 0.19 148.42 0.19L148.42 0.19L148.42 0.19Q147.20 0.19 146.59-0.32L146.59-0.32L146.59-0.32Q145.98-0.83 145.34-2.18L145.34-2.18L144.26-4.35L144.26-4.35Q142.34-8.64 140.86-11.07L140.86-11.07L140.86-11.07Q140.03-12.48 136.64-18.82L136.64-18.82L133.82-24.13L133.82-21.70L133.82-20.22L133.82-20.22Q133.82-19.71 133.79-18.94L133.79-18.94L133.79-18.94Q133.76-18.18 133.82-17.22L133.82-17.22L133.82-17.22Q133.82-13.89 133.92-8.51L133.92-8.51L133.92-8.51Q134.02-3.14 134.21-2.05L134.21-2.05L134.21-2.05Q134.27-1.73 134.27-1.28L134.27-1.28L134.27-1.28Q134.27-0.64 134.02-0.48L134.02-0.48L134.02-0.48Q133.76-0.32 133.06-0.38L133.06-0.38L133.06-0.38Q132.03-0.38 130.66-0.26L130.66-0.26L130.66-0.26Q129.28-0.13 128.06 0L128.06 0L128.06 0Q127.10 0.13 126.82-0.32L126.82-0.32L126.82-0.32Q126.53-0.77 126.59-2.30L126.59-2.30L126.59-2.30Q126.59-4.61 126.40-10.43L126.40-10.43L126.40-10.43Q126.14-16.51 126.08-20.99L126.08-20.99L126.08-20.99Q126.08-25.54 126.27-30.21L126.27-30.21L126.27-30.21Q126.40-36.10 126.40-38.27L126.40-38.27L126.40-38.27Q126.40-41.22 126.21-42.56L126.21-42.56L126.21-42.56Q126.08-43.71 126.08-44.03L126.08-44.03L126.08-44.03Q126.08-45.18 126.46-45.60L126.46-45.60L126.46-45.60Q126.85-46.02 127.49-46.02L127.49-46.02L127.49-46.02Q127.81-46.02 128.77-45.98L128.77-45.98L128.77-45.98Q129.73-45.95 131.52-46.40L131.52-46.40L131.52-46.40Q132.22-46.53 132.93-46.53L132.93-46.53L132.93-46.53Q133.31-46.53 134.02-46.46L134.02-46.46L134.02-46.46Q134.72-46.40 135.87-46.40L135.87-46.40L135.87-46.40Q137.34-46.40 138.34-45.25L138.34-45.25L138.34-45.25Q139.33-44.10 140.48-41.98L140.48-41.98L141.12-40.83L141.12-40.83Q141.89-39.42 142.98-37.82L142.98-37.82L143.94-36.35L143.94-39.87ZM177.73-45.31L177.73-45.31Q182.08-45.31 184.35-43.84L184.35-43.84L184.35-43.84Q186.62-42.37 187.52-41.12L187.52-41.12L187.52-41.12Q188.42-39.87 188.67-39.62L188.67-39.62L188.67-39.62Q189.18-39.04 189.18-38.40L189.18-38.40L189.18-38.40Q189.18-37.63 188.61-37.06L188.61-37.06L188.61-37.06Q188.03-36.48 187.17-35.78L187.17-35.78L187.17-35.78Q186.30-35.07 185.60-34.56L185.60-34.56L185.60-34.56Q185.28-34.37 185.02-34.37L185.02-34.37L185.02-34.37Q184.45-34.37 183.87-34.94L183.87-34.94L183.87-34.94Q183.74-35.07 182.02-37.09L182.02-37.09L182.02-37.09Q180.29-39.10 176.83-39.10L176.83-39.10L176.83-39.10Q174.21-39.10 172.29-36.32L172.29-36.32L172.29-36.32Q170.37-33.54 169.38-29.60L169.38-29.60L169.38-29.60Q168.38-25.66 168.38-22.27L168.38-22.27L168.38-22.27Q168.38-18.75 169.41-14.78L169.41-14.78L169.41-14.78Q170.43-10.82 172.70-8L172.70-8L172.70-8Q174.98-5.18 178.43-5.18L178.43-5.18L178.43-5.18Q183.04-5.18 185.47-8.77L185.47-8.77L185.47-8.77Q186.50-10.43 186.82-12.42L186.82-12.42L184.96-12.42L182.08-12.48L175.62-12.54L175.62-12.54Q174.53-12.54 174.53-13.57L174.53-13.57L174.53-16.06L174.53-16.06Q174.53-16.70 174.72-16.86L174.72-16.86L174.72-16.86Q174.91-17.02 175.23-17.02L175.23-17.02L178.18-17.02L191.30-17.34L191.30-17.34Q191.87-17.34 192.16-16.77L192.16-16.77L192.16-16.77Q192.45-16.19 192.38-15.23L192.38-15.23L192.38-15.23Q192.38-12.99 191.55-9.44L191.55-9.44L191.55-9.44Q190.72-5.89 187.46-2.53L187.46-2.53L187.46-2.53Q184.19 0.83 177.73 0.83L177.73 0.83L177.73 0.83Q172.93 0.83 169.50-2.82L169.50-2.82L169.50-2.82Q166.08-6.46 164.38-12.19L164.38-12.19L164.38-12.19Q162.69-17.92 162.69-23.94L162.69-23.94L162.69-23.94Q162.69-29.57 164.77-34.50L164.77-34.50L164.77-34.50Q166.85-39.42 170.34-42.37L170.34-42.37L170.34-42.37Q173.82-45.31 177.73-45.31L177.73-45.31ZM245.06-0.90L245.06-0.90Q245.25-0.45 245.25-0.26L245.25-0.26L245.25-0.26Q245.25 0 244.54 0L244.54 0L240.96 0L240.96 0Q240.70 0 240.54-0.10L240.54-0.10L240.54-0.10Q240.38-0.19 240.26-0.58L240.26-0.58L240.26-0.58Q240-1.28 239.55-2.88L239.55-2.88L239.55-2.88Q238.98-4.48 238.78-5.76L238.78-5.76L238.78-5.76Q238.59-6.72 238.18-8.06L238.18-8.06L238.18-8.06Q237.76-9.41 237.44-10.11L237.44-10.11L237.44-10.11Q236.86-11.33 236.42-12.86L236.42-12.86L235.84-14.72L235.84-14.72Q235.52-15.42 235.36-15.58L235.36-15.58L235.36-15.58Q235.20-15.74 234.82-15.74L234.82-15.74L234.82-15.74Q233.47-15.74 232.83-15.68L232.83-15.68L230.08-15.55L230.08-15.55Q229.57-15.49 225.34-15.49L225.34-15.49L221.44-15.49L221.31-15.49L221.31-15.49Q220.93-15.49 220.74-14.78L220.74-14.78L220.61-14.14L220.35-12.93L220.35-12.93Q220.22-12.61 219.52-9.22L219.52-9.22L219.52-9.22Q219.33-8.13 218.88-6.40L218.88-6.40L218.88-6.40Q218.75-5.12 218.30-4.29L218.30-4.29L218.30-4.29Q218.18-4.10 217.98-3.39L217.98-3.39L217.98-3.39Q217.79-2.69 217.66-2.24L217.66-2.24L217.66-2.24Q217.47-1.73 217.22-0.58L217.22-0.58L217.22-0.58Q217.15-0.51 217.09-0.29L217.09-0.29L217.09-0.29Q217.02-0.06 216.90-0.03L216.90-0.03L216.90-0.03Q216.77 0 216.51 0L216.51 0L215.23 0L215.23 0Q214.66 0 214.91-0.83L214.91-0.83L214.91-0.83Q214.91-1.02 214.98-1.15L214.98-1.15L214.98-1.15Q214.98-1.28 215.04-1.47L215.04-1.47L215.04-1.47Q215.10-1.66 215.23-2.05L215.23-2.05L215.81-4.42L215.81-4.42Q215.94-4.80 216.26-5.76L216.26-5.76L216.26-5.76Q216.58-6.72 216.70-7.55L216.70-7.55L216.70-7.55Q217.02-9.09 217.92-12.22L217.92-12.22L218.43-14.02L218.43-14.02Q219.65-17.98 219.97-19.58L219.97-19.58L220.86-22.98L220.86-22.98Q221.50-25.09 221.63-25.66L221.63-25.66L221.63-25.66Q222.08-27.58 222.91-30.46L222.91-30.46L223.36-32.26L223.74-33.60L223.74-33.60Q224.38-35.78 224.83-36.74L224.83-36.74L224.83-36.74Q224.96-37.12 225.76-39.39L225.76-39.39L225.76-39.39Q226.56-41.66 226.82-43.01L226.82-43.01L226.82-43.01Q227.26-44.54 227.74-45.31L227.74-45.31L227.74-45.31Q228.22-46.08 229.06-46.08L229.06-46.08L229.06-46.08Q229.38-46.08 229.70-45.50L229.70-45.50L229.70-45.50Q230.02-44.93 230.34-44.10L230.34-44.10L230.34-44.10Q230.66-43.26 230.78-42.88L230.78-42.88L230.78-42.88Q231.30-41.66 232.58-36.80L232.58-36.80L233.09-35.01L233.09-35.01Q233.15-34.50 235.20-28.74L235.20-28.74L236.42-25.22L237.57-22.21L237.57-22.21Q239.36-17.15 239.87-16.06L239.87-16.06L239.87-16.06Q242.11-9.28 242.50-7.87L242.50-7.87L242.50-7.87Q242.94-6.21 243.94-3.71L243.94-3.71L243.94-3.71Q244.93-1.22 245.06-0.90L245.06-0.90ZM233.09-19.90L233.09-19.90Q233.92-19.90 233.92-20.35L233.92-20.35L233.92-20.35Q233.92-20.67 233.47-21.76L233.47-21.76L233.47-21.76Q233.09-22.72 232.32-25.34L232.32-25.34L232.32-25.34Q231.74-27.46 231.17-28.99L231.17-28.99L231.17-28.99Q230.53-30.91 229.79-33.54L229.79-33.54L229.79-33.54Q229.06-36.16 228.93-36.93L228.93-36.93L228.93-36.93Q227.97-40.32 227.65-40.32L227.65-40.32L227.65-40.32Q227.46-40.32 227.01-38.59L227.01-38.59L226.62-37.18L226.62-37.18Q226.18-35.46 225.47-32.86L225.47-32.86L225.47-32.86Q224.77-30.27 224.19-28.48L224.19-28.48L224.19-28.48Q223.81-26.82 223.14-24.29L223.14-24.29L223.14-24.29Q222.46-21.76 222.08-20.80L222.08-20.80L222.08-20.80Q221.95-20.42 221.95-20.35L221.95-20.35L221.95-20.35Q221.95-19.90 222.37-19.78L222.37-19.78L222.37-19.78Q222.78-19.65 223.20-19.68L223.20-19.68L223.20-19.68Q223.62-19.71 223.74-19.71L223.74-19.71L227.46-19.84L227.46-19.84Q228.22-19.97 229.63-19.97L229.63-19.97L233.09-19.90ZM267.90-39.87L267.90-39.87Q267.90-43.84 267.97-44.80L267.97-44.80L267.97-44.80Q267.97-46.02 268.80-46.27L268.80-46.27L268.80-46.27Q269.63-46.53 271.23-46.53L271.23-46.53L271.23-46.53Q272.64-46.53 274.85-46.69L274.85-46.69L274.85-46.69Q277.06-46.85 278.27-47.04L278.27-47.04L278.27-47.04Q279.17-47.10 279.55-46.75L279.55-46.75L279.55-46.75Q279.94-46.40 279.94-45.57L279.94-45.57L279.94-45.57Q279.94-45.31 279.81-44.16L279.81-44.16L279.81-44.16Q279.68-43.20 279.68-31.42L279.68-31.42L279.68-16.96L279.68-16.96Q279.68-13.70 279.78-9.76L279.78-9.76L279.78-9.76Q279.87-5.82 280-2.69L280-2.69L280-2.69Q280.13 0.45 280.13-0.96L280.13-0.96L280.13-0.96Q280.13 0.06 279.10 0.06L279.10 0.06L279.10 0.06Q278.66 0.06 278.34 0L278.34 0L278.34 0Q278.08-0.06 277.31-0.06L277.31-0.06L277.31-0.06Q276.54-0.06 274.88 0.06L274.88 0.06L274.88 0.06Q273.09 0.19 272.38 0.19L272.38 0.19L272.38 0.19Q271.17 0.19 270.56-0.32L270.56-0.32L270.56-0.32Q269.95-0.83 269.31-2.18L269.31-2.18L268.22-4.35L268.22-4.35Q266.30-8.64 264.83-11.07L264.83-11.07L264.83-11.07Q264-12.48 260.61-18.82L260.61-18.82L257.79-24.13L257.79-21.70L257.79-20.22L257.79-20.22Q257.79-19.71 257.76-18.94L257.76-18.94L257.76-18.94Q257.73-18.18 257.79-17.22L257.79-17.22L257.79-17.22Q257.79-13.89 257.89-8.51L257.89-8.51L257.89-8.51Q257.98-3.14 258.18-2.05L258.18-2.05L258.18-2.05Q258.24-1.73 258.24-1.28L258.24-1.28L258.24-1.28Q258.24-0.64 257.98-0.48L257.98-0.48L257.98-0.48Q257.73-0.32 257.02-0.38L257.02-0.38L257.02-0.38Q256-0.38 254.62-0.26L254.62-0.26L254.62-0.26Q253.25-0.13 252.03 0L252.03 0L252.03 0Q251.07 0.13 250.78-0.32L250.78-0.32L250.78-0.32Q250.50-0.77 250.56-2.30L250.56-2.30L250.56-2.30Q250.56-4.61 250.37-10.43L250.37-10.43L250.37-10.43Q250.11-16.51 250.05-20.99L250.05-20.99L250.05-20.99Q250.05-25.54 250.24-30.21L250.24-30.21L250.24-30.21Q250.37-36.10 250.37-38.27L250.37-38.27L250.37-38.27Q250.37-41.22 250.18-42.56L250.18-42.56L250.18-42.56Q250.05-43.71 250.05-44.03L250.05-44.03L250.05-44.03Q250.05-45.18 250.43-45.60L250.43-45.60L250.43-45.60Q250.82-46.02 251.46-46.02L251.46-46.02L251.46-46.02Q251.78-46.02 252.74-45.98L252.74-45.98L252.74-45.98Q253.70-45.95 255.49-46.40L255.49-46.40L255.49-46.40Q256.19-46.53 256.90-46.53L256.90-46.53L256.90-46.53Q257.28-46.53 257.98-46.46L257.98-46.46L257.98-46.46Q258.69-46.40 259.84-46.40L259.84-46.40L259.84-46.40Q261.31-46.40 262.30-45.25L262.30-45.25L262.30-45.25Q263.30-44.10 264.45-41.98L264.45-41.98L265.09-40.83L265.09-40.83Q265.86-39.42 266.94-37.82L266.94-37.82L267.90-36.35L267.90-39.87ZM300.29-27.52L303.04-27.46L303.04-27.46Q304.38-27.46 305.54-27.58L305.54-27.58L305.54-27.58Q305.92-27.65 306.75-27.65L306.75-27.65L306.75-27.65Q307.65-27.65 308.10-27.58L308.10-27.58L309.57-27.46L309.76-29.38L309.95-32.45L310.08-38.72L310.21-43.65L310.21-43.65Q310.27-44.61 310.46-44.93L310.46-44.93L310.46-44.93Q310.66-45.25 311.36-45.31L311.36-45.31L311.36-45.31Q312.00-45.31 314.94-45.70L314.94-45.70L314.94-45.70Q315.46-45.76 316.80-45.76L316.80-45.76L316.80-45.76Q318.85-45.76 320.19-45.57L320.19-45.57L320.19-45.57Q320.90-45.44 321.06-45.28L321.06-45.28L321.06-45.28Q321.22-45.12 321.25-44.74L321.25-44.74L321.25-44.74Q321.28-44.35 321.34-44.03L321.34-44.03L321.34-44.03Q321.34-43.01 321.15-40.58L321.15-40.58L321.15-40.58Q320.90-36.10 320.90-34.43L320.90-34.43L320.90-34.43Q320.90-33.60 320.51-29.12L320.51-29.12L320.51-29.12Q320.13-24.26 320.13-22.78L320.13-22.78L320.26-10.11L320.26-10.11Q320.26-2.94 320.51-1.34L320.51-1.34L320.51-1.22L320.51-1.22Q320.51-0.51 320.26-0.35L320.26-0.35L320.26-0.35Q320-0.19 319.68-0.22L319.68-0.22L319.68-0.22Q319.36-0.26 319.23-0.26L319.23-0.26L319.23-0.26Q318.72-0.38 317.95-0.38L317.95-0.38L317.95-0.38Q317.70-0.38 316.29-0.26L316.29-0.26L316.29-0.26Q314.50-0.06 310.53-0.06L310.53-0.06L310.40-0.06L310.40-0.06Q309.50-0.06 309.50-0.64L309.50-0.64L309.50-0.64Q309.50-1.86 309.47-5.44L309.47-5.44L309.47-5.44Q309.44-9.02 309.25-10.69L309.25-10.69L309.25-10.69Q309.12-13.12 309.12-15.42L309.12-15.42L309.12-15.42Q309.06-16.38 309.06-18.37L309.06-18.37L307.20-18.37L304.45-18.30L303.30-18.24L302.02-18.30L302.02-18.30Q301.06-18.30 300.48-18.37L300.48-18.37L300.29-14.34L300.29-14.34Q300.10-12.10 300.10-8.51L300.10-8.51L300.10-5.25L300.10-5.25Q300.10-1.79 300.22-1.09L300.22-1.09L300.22-1.09Q300.35-0.32 300.00-0.16L300.00-0.16L300.00-0.16Q299.65 0 299.17 0L299.17 0L299.17 0Q298.69 0 298.50 0L298.50 0L298.50 0Q297.98-0.06 296.77-0.16L296.77-0.16L296.77-0.16Q295.55-0.26 294.78-0.26L294.78-0.26L292.93-0.13L292.93-0.13Q292.48-0.06 289.60 0.13L289.60 0.13L289.60 0.13Q288.13 0.32 288.13-1.66L288.13-1.66L288.19-4.16L288.32-8.77L288.32-8.77Q288.32-10.18 288.38-11.39L288.38-11.39L288.45-18.82L288.45-18.82Q288.45-21.38 288.38-22.08L288.38-22.08L288.38-22.08Q288.19-23.55 288.19-25.92L288.19-25.92L288.26-29.82L288.26-29.82Q288.32-30.78 288.32-32.32L288.32-32.32L288.32-32.32Q288.32-34.11 288.70-39.74L288.70-39.74L288.90-44.16L288.90-44.16Q288.90-44.67 289.09-44.86L289.09-44.86L289.09-44.86Q289.28-45.06 289.66-45.06L289.66-45.06L290.50-44.99L290.50-44.99Q291.33-44.86 292.67-44.80L292.67-44.80L292.67-44.80Q294.02-44.74 295.30-44.74L295.30-44.74L298.24-44.80L298.24-44.80Q298.94-44.86 299.84-44.86L299.84-44.86L299.90-44.86L299.90-44.86Q300.42-44.86 300.42-44.16L300.42-44.16L300.42-44.16Q300.48-44.03 300.51-41.63L300.51-41.63L300.51-41.63Q300.54-39.23 300.54-35.97L300.54-35.97L300.54-35.97Q300.54-33.92 300.42-30.46L300.42-30.46L300.29-27.52ZM362.88-46.08L362.88-46.08Q368.13-46.08 370.82-44.19L370.82-44.19L370.82-44.19Q373.50-42.30 374.56-40.74L374.56-40.74L374.56-40.74Q375.62-39.17 375.87-38.78L375.87-38.78L375.87-38.78Q376.51-37.95 376.51-37.50L376.51-37.50L376.51-37.50Q376.51-37.12 376.26-36.86L376.26-36.86L376.26-36.86Q376.00-36.61 375.62-36.42L375.62-36.42L375.62-36.42Q375.23-36.22 375.10-36.10L375.10-36.10L375.10-36.10Q374.34-35.58 373.06-34.50L373.06-34.50L373.06-34.50Q372.48-34.05 371.36-33.18L371.36-33.18L371.36-33.18Q370.24-32.32 369.86-32.13L369.86-32.13L369.86-32.13Q369.60-31.94 369.34-31.94L369.34-31.94L369.34-31.94Q368.90-31.94 368.51-32.45L368.51-32.45L368.51-32.45Q368.13-32.96 368.00-33.15L368.00-33.15L368.00-33.15Q367.87-33.34 367.33-33.98L367.33-33.98L367.33-33.98Q366.78-34.62 365.95-35.07L365.95-35.07L365.95-35.07Q365.12-35.52 364.10-35.52L364.10-35.52L364.10-35.52Q362.18-35.52 361.09-33.02L361.09-33.02L361.09-33.02Q360.00-30.53 360.00-24.13L360.00-24.13L360.00-24.13Q360.00-19.90 360.70-17.22L360.70-17.22L360.70-17.22Q361.41-14.53 362.40-13.34L362.40-13.34L362.40-13.34Q363.39-12.16 364.29-12.16L364.29-12.16L364.29-12.16Q365.57-12.16 366.24-12.74L366.24-12.74L366.24-12.74Q366.91-13.31 367.42-14.91L367.42-14.91L367.42-14.91Q367.94-16.45 369.09-16.45L369.09-16.45L369.09-16.45Q369.47-16.45 369.95-16.32L369.95-16.32L369.95-16.32Q370.43-16.19 370.69-16.13L370.69-16.13L370.69-16.13Q371.33-15.87 373.82-15.33L373.82-15.33L373.82-15.33Q376.32-14.78 378.11-14.46L378.11-14.46L378.11-14.46Q379.01-14.27 379.01-12.93L379.01-12.93L379.01-12.93Q379.01-12.29 378.94-11.97L378.94-11.97L378.94-11.97Q378.88-11.14 378.43-9.73L378.43-9.73L378.43-9.73Q377.09-5.63 373.86-2.34L373.86-2.34L373.86-2.34Q370.62 0.96 364.22 0.96L364.22 0.96L364.22 0.96Q360.32 0.96 356.35-1.41L356.35-1.41L356.35-1.41Q352.38-3.78 349.63-9.31L349.63-9.31L349.63-9.31Q346.88-14.85 346.88-23.87L346.88-23.87L346.88-23.87Q346.88-36.67 351.81-41.38L351.81-41.38L351.81-41.38Q356.74-46.08 362.88-46.08L362.88-46.08ZM397.38-44.67L397.38-19.07L397.38-19.07Q397.38-17.66 397.54-16.64L397.54-16.64L397.54-16.64Q397.70-15.62 398.50-14.69L398.50-14.69L398.50-14.69Q399.30-13.76 401.09-13.76L401.09-13.76L401.09-13.76Q403.58-13.76 404.48-15.65L404.48-15.65L404.48-15.65Q405.38-17.54 405.38-19.78L405.38-19.78L405.44-22.98L405.44-22.98Q405.63-30.08 405.63-30.91L405.63-30.91L405.63-30.91Q405.63-32.70 405.57-33.34L405.57-33.34L405.57-33.34Q405.57-35.58 405.31-40.19L405.31-40.19L405.18-43.71L405.18-43.71Q405.18-44.86 405.50-45.31L405.50-45.31L405.50-45.31Q405.82-45.76 406.72-45.76L406.72-45.76L414.85-45.76L415.81-45.82L415.81-45.82Q416.45-45.82 416.86-45.44L416.86-45.44L416.86-45.44Q417.28-45.06 417.41-43.90L417.41-43.90L417.41-43.90Q417.54-42.82 417.54-36.35L417.54-36.35L417.47-22.59L417.47-22.59Q417.47-19.01 416.32-13.98L416.32-13.98L416.32-13.98Q415.17-8.96 411.52-4.67L411.52-4.67L411.52-4.67Q407.87-0.38 401.09-0.38L401.09-0.38L401.09-0.38Q385.86-0.38 384.70-14.98L384.70-14.98L384.70-14.98Q384.64-15.62 384.64-17.54L384.64-17.54L384.64-17.54Q384.64-19.52 384.77-24.51L384.77-24.51L384.77-24.51Q384.96-30.27 384.90-33.09L384.90-33.09L384.90-33.09Q384.90-36.93 384.77-41.15L384.77-41.15L384.77-41.15Q384.70-42.37 384.70-43.65L384.70-43.65L384.70-43.65Q384.70-43.90 384.67-44.61L384.67-44.61L384.67-44.61Q384.64-45.31 384.93-45.63L384.93-45.63L384.93-45.63Q385.22-45.95 385.98-45.95L385.98-45.95L389.70-45.89L389.70-45.89Q390.98-45.89 391.55-45.95L391.55-45.95L391.55-45.95Q392.96-46.08 393.86-46.08L393.86-46.08L396.42-46.02L396.42-46.02Q396.99-46.02 397.15-45.73L397.15-45.73L397.15-45.73Q397.31-45.44 397.38-44.67L397.38-44.67ZM455.04-46.02L455.04-46.02Q455.81-45.95 455.97-45.63L455.97-45.63L455.97-45.63Q456.13-45.31 456.10-44.77L456.10-44.77L456.10-44.77Q456.06-44.22 456.06-43.97L456.06-43.97L456.06-43.97Q456.13-43.14 455.74-42.82L455.74-42.82L455.74-42.82Q455.36-42.50 454.53-42.50L454.53-42.50L454.53-42.50Q454.02-42.50 452.58-42.43L452.58-42.43L452.58-42.43Q451.14-42.37 449.09-42.43L449.09-42.43L448.83-42.43L448.70-30.85L448.64-19.58L448.64-19.58Q448.64-17.02 448.93-13.09L448.93-13.09L448.93-13.09Q449.22-9.15 449.28-8.13L449.28-8.13L449.28-8.13Q449.66-3.01 449.66-2.37L449.66-2.37L449.66-2.37Q449.73-1.09 449.09-0.70L449.09-0.70L449.09-0.70Q448.45-0.32 446.85-0.32L446.85-0.32L444.03-0.38L444.03-0.38Q443.71-0.38 433.54-0.58L433.54-0.58L429.57-0.64L429.57-0.64Q428.93-0.64 428.93-1.92L428.93-1.92L428.93-1.92Q428.93-2.37 429.06-3.65L429.06-3.65L429.06-3.65Q429.18-5.31 429.18-6.21L429.18-6.21L429.18-6.21Q429.06-7.87 429.06-12.03L429.06-12.03L429.06-12.03Q429.06-17.60 429.22-23.94L429.22-23.94L429.22-23.94Q429.38-30.27 429.63-33.47L429.63-33.47L429.63-33.47Q429.76-35.14 429.76-37.95L429.76-37.95L429.76-37.95Q429.76-41.09 429.57-42.69L429.57-42.69L428.42-42.75L423.10-42.62L423.10-42.62Q422.59-42.62 422.59-43.65L422.59-43.65L422.66-45.06L422.66-45.06Q422.66-45.57 422.82-45.73L422.82-45.73L422.82-45.73Q422.98-45.89 423.36-45.89L423.36-45.89L423.36-45.89Q423.62-45.89 424.00-45.82L424.00-45.82L424.00-45.82Q424.38-45.76 424.90-45.76L424.90-45.76L438.53-45.82L449.66-45.95L449.66-45.95Q452.29-46.02 455.04-46.02L455.04-46.02ZM488.70-42.56L488.70-41.86L488.70-41.86Q488.70-40.38 488.45-40.38L488.45-40.38L488.45-40.38Q488.06-40.38 487.58-40.48L487.58-40.48L487.58-40.48Q487.10-40.58 486.40-40.58L486.40-40.58L476.16-40.58L468.22-40.64L468.22-40.64Q467.84-40.64 465.34-40.45L465.34-40.45L463.87-40.32L463.74-38.59L463.74-38.59Q463.68-37.63 463.68-35.58L463.68-35.58L463.68-35.58Q463.68-34.56 463.81-32.90L463.81-32.90L463.81-32.90Q463.94-31.36 463.94-30.66L463.94-30.66L463.94-28.10L463.94-28.10Q463.94-27.07 464.00-26.50L464.00-26.50L464.00-26.50Q464.58-26.43 465.73-26.43L465.73-26.43L468.29-26.43L468.29-26.43Q468.67-26.43 469.82-26.56L469.82-26.56L469.82-26.56Q471.49-26.69 472.70-26.69L472.70-26.69L472.70-26.69Q473.22-26.69 476.29-26.50L476.29-26.50L477.70-26.43L477.70-26.43Q478.21-26.43 479.17-26.53L479.17-26.53L479.17-26.53Q480.13-26.62 481.02-26.62L481.02-26.62L483.14-26.56L483.14-26.56Q484.80-26.43 485.44-26.43L485.44-26.43L485.44-26.43Q486.14-26.43 486.40-26.50L486.40-26.50L486.78-26.56L486.78-26.56Q487.23-26.56 487.42-26.27L487.42-26.27L487.42-26.27Q487.62-25.98 487.55-25.73L487.55-25.73L487.55-25.73Q487.49-25.28 487.49-24.61L487.49-24.61L487.49-24.61Q487.49-23.94 487.42-23.42L487.42-23.42L487.42-23.42Q487.36-22.91 487.23-22.82L487.23-22.82L487.23-22.82Q487.10-22.72 486.46-22.72L486.46-22.72L483.90-22.98L483.90-22.98Q479.10-23.42 477.63-23.42L477.63-23.42L477.63-23.42Q472.19-23.42 469.63-23.23L469.63-23.23L469.63-23.23Q468.61-23.10 467.39-23.10L467.39-23.10L467.39-23.10Q466.18-23.10 465.86-23.10L465.86-23.10L465.86-23.10Q464.64-23.10 464.06-23.17L464.06-23.17L463.87-22.14L463.87-22.14Q463.74-20.99 463.74-20.10L463.74-20.10L463.74-20.10Q463.74-19.33 463.87-18.30L463.87-18.30L463.87-18.30Q464.00-17.28 464.00-16.51L464.00-16.51L464.06-8.90L464.00-5.70L464.00-5.70Q463.94-5.12 463.94-4.10L463.94-4.10L463.94-4.10Q464.77-4.03 466.37-4.03L466.37-4.03L466.37-4.03Q467.71-3.97 470.53-3.97L470.53-3.97L473.98-3.90L473.98-3.90Q475.07-3.84 477.31-3.84L477.31-3.84L477.31-3.84Q478.66-3.84 480.83-3.97L480.83-3.97L483.52-4.03L483.52-4.03Q485.06-4.03 486.08-3.97L486.08-3.97L486.08-3.97Q487.10-3.90 487.62-3.90L487.62-3.90L487.62-3.90Q488.13-3.90 488.22-3.71L488.22-3.71L488.22-3.71Q488.32-3.52 488.32-2.88L488.32-2.88L488.32-2.88Q488.32-2.43 488.26-1.95L488.26-1.95L488.26-1.95Q488.19-1.47 488.19-0.90L488.19-0.90L488.19-0.90Q488.19-0.45 487.87-0.29L487.87-0.29L487.87-0.29Q487.55-0.13 486.85-0.13L486.85-0.13L486.85-0.13Q486.14-0.13 485.70-0.19L485.70-0.19L485.70-0.19Q483.97-0.38 478.72-0.38L478.72-0.38L478.72-0.38Q475.52-0.38 474.11-0.32L474.11-0.32L474.11-0.32Q473.02-0.26 470.53-0.26L470.53-0.26L464.58-0.32L464.58-0.32Q463.55-0.38 462.14-0.38L462.14-0.38L462.14-0.38Q461.25-0.38 460.96-0.61L460.96-0.61L460.96-0.61Q460.67-0.83 460.67-1.34L460.67-1.34L460.74-2.37L460.74-2.37Q460.80-2.62 460.80-2.94L460.80-2.94L460.80-2.94Q460.80-3.14 460.74-3.87L460.74-3.87L460.74-3.87Q460.67-4.61 460.67-6.59L460.67-6.59L460.67-6.59Q460.67-8.51 460.54-12.86L460.54-12.86L460.54-12.86Q460.35-16.45 460.35-19.78L460.35-19.78L460.35-19.78Q460.35-21.18 460.67-27.90L460.67-27.90L460.67-27.90Q460.74-29.25 460.80-30.59L460.80-30.59L460.80-30.59Q460.86-31.94 460.86-33.02L460.86-33.02L460.86-33.02Q460.86-40.45 460.67-42.82L460.67-42.82L460.67-42.82Q460.48-44.35 462.53-44.35L462.53-44.35L462.53-44.35Q463.04-44.35 464.19-44.22L464.19-44.22L464.19-44.22Q465.22-44.10 465.73-44.10L465.73-44.10L469.76-44.22L469.76-44.22Q474.11-44.48 476.48-44.48L476.48-44.48L476.48-44.48Q479.23-44.48 484.22-44.35L484.22-44.35L484.22-44.35Q485.82-44.29 487.62-44.29L487.62-44.29L487.62-44.29Q488.38-44.29 488.58-43.90L488.58-43.90L488.58-43.90Q488.77-43.52 488.74-43.10L488.74-43.10L488.74-43.10Q488.70-42.69 488.70-42.56L488.70-42.56ZM541.06-41.66L541.06-41.66Q541.31-41.34 542.50-39.94L542.50-39.94L542.50-39.94Q543.68-38.53 544.32-36.80L544.32-36.80L544.32-36.80Q544.96-35.07 544.96-33.09L544.96-33.09L544.96-33.09Q544.96-27.78 541.86-24.58L541.86-24.58L541.86-24.58Q538.75-21.38 534.02-19.71L534.02-19.71L534.02-19.71Q528.90-17.98 523.07-17.92L523.07-17.92L522.94-10.94L522.82-1.92L522.82-1.92Q522.82 0 521.28 0L521.28 0L521.28 0Q520.90 0 520.51-0.06L520.51-0.06L520.51-0.06Q520.13-0.13 519.87-0.13L519.87-0.13L517.44 0L514.94 0.13L514.94 0.13Q514.24 0.13 513.98-0.38L513.98-0.38L513.98-0.38Q513.73-0.90 513.73-1.92L513.73-1.92L513.73-1.92Q513.73-2.24 513.76-3.14L513.76-3.14L513.76-3.14Q513.79-4.03 513.79-5.82L513.79-5.82L513.79-5.82Q513.98-15.62 513.98-15.74L513.98-15.74L513.98-33.28L513.98-33.28Q513.98-35.84 514.24-38.85L514.24-38.85L514.50-43.07L514.50-43.07Q514.50-44.10 514.72-44.26L514.72-44.26L514.72-44.26Q514.94-44.42 515.71-44.42L515.71-44.42L515.71-44.42Q516.22-44.42 518.78-44.67L518.78-44.67L518.78-44.67Q522.11-45.06 524.10-45.06L524.10-45.06L524.10-45.06Q529.47-45.06 532.32-44.90L532.32-44.90L532.32-44.90Q535.17-44.74 537.44-44L537.44-44L537.44-44Q539.71-43.26 541.06-41.66L541.06-41.66ZM535.68-23.04L535.68-23.04Q537.98-24.13 539.07-25.95L539.07-25.95L539.07-25.95Q540.16-27.78 540.16-30.85L540.16-30.85L540.16-30.85Q540.16-33.28 539.65-35.90L539.65-35.90L539.65-35.90Q539.14-38.53 536.77-39.94L536.77-39.94L536.77-39.94Q534.40-41.34 531.07-41.79L531.07-41.79L531.07-41.79Q529.34-42.05 526.98-42.05L526.98-42.05L526.98-42.05Q525.95-42.05 523.52-41.92L523.52-41.92L523.14-21.25L523.14-21.25Q525.63-21.18 527.94-21.44L527.94-21.44L527.94-21.44Q533.18-21.82 535.68-23.04L535.68-23.04ZM561.41-27.52L564.16-27.46L564.16-27.46Q565.50-27.46 566.66-27.58L566.66-27.58L566.66-27.58Q567.04-27.65 567.87-27.65L567.87-27.65L567.87-27.65Q568.77-27.65 569.22-27.58L569.22-27.58L570.69-27.46L570.88-29.38L571.07-32.45L571.20-38.72L571.33-43.65L571.33-43.65Q571.39-44.61 571.58-44.93L571.58-44.93L571.58-44.93Q571.78-45.25 572.48-45.31L572.48-45.31L572.48-45.31Q573.12-45.31 576.06-45.70L576.06-45.70L576.06-45.70Q576.58-45.76 577.92-45.76L577.92-45.76L577.92-45.76Q579.97-45.76 581.31-45.57L581.31-45.57L581.31-45.57Q582.02-45.44 582.18-45.28L582.18-45.28L582.18-45.28Q582.34-45.12 582.37-44.74L582.37-44.74L582.37-44.74Q582.40-44.35 582.46-44.03L582.46-44.03L582.46-44.03Q582.46-43.01 582.27-40.58L582.27-40.58L582.27-40.58Q582.02-36.10 582.02-34.43L582.02-34.43L582.02-34.43Q582.02-33.60 581.63-29.12L581.63-29.12L581.63-29.12Q581.25-24.26 581.25-22.78L581.25-22.78L581.38-10.11L581.38-10.11Q581.38-2.94 581.63-1.34L581.63-1.34L581.63-1.22L581.63-1.22Q581.63-0.51 581.38-0.35L581.38-0.35L581.38-0.35Q581.12-0.19 580.80-0.22L580.80-0.22L580.80-0.22Q580.48-0.26 580.35-0.26L580.35-0.26L580.35-0.26Q579.84-0.38 579.07-0.38L579.07-0.38L579.07-0.38Q578.82-0.38 577.41-0.26L577.41-0.26L577.41-0.26Q575.62-0.06 571.65-0.06L571.65-0.06L571.52-0.06L571.52-0.06Q570.62-0.06 570.62-0.64L570.62-0.64L570.62-0.64Q570.62-1.86 570.59-5.44L570.59-5.44L570.59-5.44Q570.56-9.02 570.37-10.69L570.37-10.69L570.37-10.69Q570.24-13.12 570.24-15.42L570.24-15.42L570.24-15.42Q570.18-16.38 570.18-18.37L570.18-18.37L568.32-18.37L565.57-18.30L564.42-18.24L563.14-18.30L563.14-18.30Q562.18-18.30 561.60-18.37L561.60-18.37L561.41-14.34L561.41-14.34Q561.22-12.10 561.22-8.51L561.22-8.51L561.22-5.25L561.22-5.25Q561.22-1.79 561.34-1.09L561.34-1.09L561.34-1.09Q561.47-0.32 561.12-0.16L561.12-0.16L561.12-0.16Q560.77 0 560.29 0L560.29 0L560.29 0Q559.81 0 559.62 0L559.62 0L559.62 0Q559.10-0.06 557.89-0.16L557.89-0.16L557.89-0.16Q556.67-0.26 555.90-0.26L555.90-0.26L554.05-0.13L554.05-0.13Q553.60-0.06 550.72 0.13L550.72 0.13L550.72 0.13Q549.25 0.32 549.25-1.66L549.25-1.66L549.31-4.16L549.44-8.77L549.44-8.77Q549.44-10.18 549.50-11.39L549.50-11.39L549.57-18.82L549.57-18.82Q549.57-21.38 549.50-22.08L549.50-22.08L549.50-22.08Q549.31-23.55 549.31-25.92L549.31-25.92L549.38-29.82L549.38-29.82Q549.44-30.78 549.44-32.32L549.44-32.32L549.44-32.32Q549.44-34.11 549.82-39.74L549.82-39.74L550.02-44.16L550.02-44.16Q550.02-44.67 550.21-44.86L550.21-44.86L550.21-44.86Q550.40-45.06 550.78-45.06L550.78-45.06L551.62-44.99L551.62-44.99Q552.45-44.86 553.79-44.80L553.79-44.80L553.79-44.80Q555.14-44.74 556.42-44.74L556.42-44.74L559.36-44.80L559.36-44.80Q560.06-44.86 560.96-44.86L560.96-44.86L561.02-44.86L561.02-44.86Q561.54-44.86 561.54-44.16L561.54-44.16L561.54-44.16Q561.60-44.03 561.63-41.63L561.63-41.63L561.63-41.63Q561.66-39.23 561.66-35.97L561.66-35.97L561.66-35.97Q561.66-33.92 561.54-30.46L561.54-30.46L561.41-27.52ZM616.70-47.74L616.70-47.74Q616.45-46.78 615.68-46.78L615.68-46.78L615.68-46.78Q615.17-46.78 613.95-47.23L613.95-47.23L612.22-47.68L612.22-47.68Q611.14-48.13 609.98-48.83L609.98-48.83L607.94-49.79L604.99-48.45L604.99-48.45Q603.78-47.81 601.34-47.10L601.34-47.10L601.34-47.10Q600.13-46.91 598.91-46.91L598.91-46.91L598.91-46.91Q598.21-46.91 597.79-47.23L597.79-47.23L597.79-47.23Q597.38-47.55 597.38-47.94L597.38-47.94L597.38-47.94Q597.38-48.45 597.82-48.70L597.82-48.70L599.55-49.79L599.55-49.79Q599.74-49.86 600.42-50.18L600.42-50.18L600.42-50.18Q601.09-50.50 602.62-51.65L602.62-51.65L602.62-51.65Q605.18-53.12 605.95-53.31L605.95-53.31L605.95-53.31Q606.53-53.57 607.10-53.57L607.10-53.57L607.10-53.57Q607.36-53.63 607.81-53.63L607.81-53.63L607.81-53.63Q608.32-53.63 608.74-53.47L608.74-53.47L608.74-53.47Q609.15-53.31 609.54-53.09L609.54-53.09L609.54-53.09Q609.92-52.86 610.24-52.67L610.24-52.67L610.24-52.67Q612.10-51.39 613.18-50.75L613.18-50.75L614.53-49.92L614.53-49.92Q615.55-49.28 616.19-48.77L616.19-48.77L616.19-48.77Q616.83-48.26 616.70-47.74L616.70-47.74ZM614.08-44.67L614.08-44.67Q617.92-42.11 620.26-37.76L620.26-37.76L620.26-37.76Q622.59-33.41 623.52-29.28L623.52-29.28L623.52-29.28Q624.45-25.15 624.45-22.78L624.45-22.78L624.45-22.78Q624.45-18.82 623.20-13.57L623.20-13.57L623.20-13.57Q621.95-8.32 617.86-3.81L617.86-3.81L617.86-3.81Q613.76 0.70 606.02 0.70L606.02 0.70L606.02 0.70Q595.39 0.70 590.91-11.65L590.91-11.65L590.91-11.65Q588.93-17.22 588.67-24.06L588.67-24.06L588.67-24.06Q588.67-29.70 591.04-34.78L591.04-34.78L591.04-34.78Q593.41-39.87 597.28-42.94L597.28-42.94L597.28-42.94Q601.15-46.02 605.25-46.02L605.25-46.02L605.25-46.02Q608.96-46.02 610.78-45.82L610.78-45.82L610.78-45.82Q612.61-45.63 614.08-44.67L614.08-44.67ZM605.70-2.88L605.70-2.88Q612.48-2.88 615.81-8.54L615.81-8.54L615.81-8.54Q619.14-14.21 619.14-22.78L619.14-22.78L619.14-22.78Q619.14-28.03 617.57-32.48L617.57-32.48L617.57-32.48Q616-36.93 613.15-39.58L613.15-39.58L613.15-39.58Q610.30-42.24 606.59-42.24L606.59-42.24L606.59-42.24Q606.27-42.24 604.90-42.24L604.90-42.24L604.90-42.24Q603.52-42.24 602.50-41.79L602.50-41.79L602.50-41.79Q601.47-41.34 600.64-40.45L600.64-40.45L600.64-40.45Q598.53-38.34 597.09-36.58L597.09-36.58L597.09-36.58Q595.65-34.82 594.21-31.36L594.21-31.36L594.21-31.36Q592.77-27.90 592.77-23.36L592.77-23.36L592.77-23.36Q592.77-17.98 594.08-13.34L594.08-13.34L594.08-13.34Q595.39-8.70 598.27-5.79L598.27-5.79L598.27-5.79Q601.15-2.88 605.70-2.88L605.70-2.88ZM653.25-43.14L653.25-43.14Q653.38-41.66 653.86-39.94L653.86-39.94L653.86-39.94Q654.34-38.21 655.23-35.46L655.23-35.46L655.23-35.46Q655.87-33.47 658.53-26.56L658.53-26.56L658.53-26.56Q661.18-19.65 662.08-17.66L662.08-17.66L662.08-17.66Q662.91-15.55 664.32-11.20L664.32-11.20L665.73-6.85L666.56-8.32L668.35-11.84L668.35-11.84Q668.74-12.74 670.72-16.51L670.72-16.51L670.72-16.51Q674.88-24.26 676.16-27.26L676.16-27.26L676.16-27.26Q677.12-29.50 678.91-33.28L678.91-33.28L678.91-33.28Q679.36-34.30 680.03-35.74L680.03-35.74L680.03-35.74Q680.70-37.18 680.96-37.82L680.96-37.82L680.96-37.82Q681.09-38.21 681.76-40.22L681.76-40.22L681.76-40.22Q682.43-42.24 683.10-43.65L683.10-43.65L683.10-43.65Q683.78-45.06 684.22-45.06L684.22-45.06L684.22-45.06Q684.74-45.06 684.74-43.58L684.74-43.58L684.74-43.58Q684.74-42.75 684.67-41.95L684.67-41.95L684.67-41.95Q684.61-41.15 684.54-40.51L684.54-40.51L684.35-38.21L684.35-38.21Q684.16-34.88 684.16-25.92L684.16-25.92L684.16-25.92Q684.16-22.78 684.06-17.95L684.06-17.95L684.06-17.95Q683.97-13.12 683.84-11.46L683.84-11.46L683.78-1.02L683.78-0.83L683.78-0.83Q683.78-0.19 683.07-0.19L683.07-0.19L683.07-0.19Q681.34-0.19 680.83-0.26L680.83-0.26L680.83-0.26Q680.51-0.32 680.51-0.77L680.51-0.77L680.58-1.86L680.58-1.86Q680.58-4.61 680.70-10.85L680.70-10.85L680.70-10.85Q680.83-17.09 681.02-19.14L681.02-19.14L681.02-19.14Q681.09-20.67 681.09-25.60L681.09-25.60L681.09-25.60Q681.09-28.29 681.02-29.70L681.02-29.70L681.02-29.70Q679.68-27.33 679.42-26.75L679.42-26.75L679.42-26.75Q678.91-25.86 677.95-23.94L677.95-23.94L677.95-23.94Q677.76-23.55 677.50-23.04L677.50-23.04L677.50-23.04Q677.25-22.53 676.93-22.02L676.93-22.02L676.93-22.02Q676.10-20.35 673.22-14.53L673.22-14.53L671.17-10.30L671.17-10.30Q670.53-9.22 669.06-6.34L669.06-6.34L669.06-6.34Q667.58-3.46 667.07-2.43L667.07-2.43L666.05-0.38L666.05-0.38Q665.66 0.45 665.12 1.09L665.12 1.09L665.12 1.09Q664.58 1.73 664.19 1.73L664.19 1.73L664.19 1.73Q663.81 1.73 663.65 1.54L663.65 1.54L663.65 1.54Q663.49 1.34 663.36 0.93L663.36 0.93L663.36 0.93Q663.23 0.51 663.17 0.32L663.17 0.32L663.17 0.32Q663.04-0.06 661.76-3.74L661.76-3.74L661.76-3.74Q660.48-7.42 659.78-9.02L659.78-9.02L659.78-9.02Q658.88-11.20 657.47-14.72L657.47-14.72L657.47-14.72Q656.06-18.24 655.62-19.78L655.62-19.78L655.62-19.78Q655.04-21.38 654.59-22.85L654.59-22.85L653.63-25.86L653.63-25.86Q652.42-29.44 652.22-30.14L652.22-30.14L652.10-27.78L652.10-27.78Q652.03-26.43 652.03-23.68L652.03-23.68L652.03-23.68Q652.03-14.59 651.78-11.01L651.78-11.01L651.78-11.01Q651.71-10.11 651.71-7.36L651.71-7.36L651.78-0.90L651.78-0.70L651.78-0.70Q651.78 0.45 650.88 0.32L650.88 0.32L650.88 0.32Q650.56 0.19 649.86 0.19L649.86 0.19L649.86 0.19Q649.15 0.19 648.83 0.19L648.83 0.19L648.83 0.19Q648.51 0.19 648.51-0.26L648.51-0.26L648.58-1.41L648.45-7.55L648.26-20.93L648.26-20.93Q648.26-24.19 648.38-28.77L648.38-28.77L648.38-28.77Q648.51-33.34 648.64-34.94L648.64-34.94L648.64-34.94Q648.83-37.06 648.93-39.58L648.93-39.58L648.93-39.58Q649.02-42.11 649.02-43.71L649.02-43.71L649.02-43.97L649.02-43.97Q649.02-44.80 649.22-44.90L649.22-44.90L649.22-44.90Q649.41-44.99 649.86-44.93L649.86-44.93L650.37-44.93L650.37-44.93Q651.39-44.93 651.97-44.99L651.97-44.99L651.97-44.99Q653.06-44.99 653.25-43.14L653.25-43.14ZM724.93-1.28L724.93-1.28Q725.25-0.64 725.25-0.45L725.25-0.45L725.25-0.45Q725.25 0.06 724.10 0.06L724.10 0.06L719.49 0.06L719.49 0.06Q719.23 0.06 718.98-0.38L718.98-0.38L718.98-0.38Q718.72-0.83 718.53-1.28L718.53-1.28L718.53-1.28Q718.34-1.73 718.21-2.05L718.21-2.05L718.21-2.05Q717.89-2.69 717.02-4.99L717.02-4.99L717.02-4.99Q716.16-7.30 715.71-8.64L715.71-8.64L715.71-8.64Q715.52-9.28 714.94-10.53L714.94-10.53L714.94-10.53Q714.37-11.78 714.11-12.29L714.11-12.29L714.11-12.29Q713.86-13.06 713.63-13.31L713.63-13.31L713.63-13.31Q713.41-13.57 712.96-13.57L712.96-13.57L712.96-13.57Q712.51-13.57 711.84-13.50L711.84-13.50L711.84-13.50Q711.17-13.44 710.40-13.38L710.40-13.38L710.40-13.38Q709.89-13.25 707.20-13.25L707.20-13.25L707.20-13.25Q705.34-13.25 703.55-13.12L703.55-13.12L703.55-13.12Q702.98-13.06 701.50-13.06L701.50-13.06L698.11-13.12L698.11-13.12Q697.79-13.12 697.63-12.86L697.63-12.86L697.63-12.86Q697.47-12.61 697.41-12.26L697.41-12.26L697.41-12.26Q697.34-11.90 697.28-11.71L697.28-11.71L696.90-10.11L696.90-10.11Q696.70-9.22 696.42-8.03L696.42-8.03L696.42-8.03Q696.13-6.85 695.94-5.82L695.94-5.82L695.23-3.07L694.72-1.22L694.72-1.22Q694.53-0.45 694.37-0.22L694.37-0.22L694.37-0.22Q694.21 0 693.89 0L693.89 0L690.11 0L690.11 0Q689.79 0 689.79-0.26L689.79-0.26L689.79-0.26Q689.79-0.38 690.05-1.15L690.05-1.15L690.05-1.15Q690.56-2.37 690.94-3.58L690.94-3.58L690.94-3.58Q693.31-11.52 693.76-13.95L693.76-13.95L693.76-13.95Q694.34-17.15 696.13-22.21L696.13-22.21L696.13-22.21Q696.70-24.38 697.22-26.18L697.22-26.18L697.22-26.18Q697.41-27.07 697.79-28.35L697.79-28.35L697.79-28.35Q699.01-32.83 700.22-36.74L700.22-36.74L701.82-41.86L701.82-41.86Q702.34-43.84 703.10-45.95L703.10-45.95L703.10-45.95Q703.49-46.91 704-46.40L704-46.40L704-46.40Q704.38-46.14 704.58-45.50L704.58-45.50L704.58-45.50Q704.77-44.86 704.83-44.61L704.83-44.61L704.83-44.61Q705.02-43.84 708.22-36.93L708.22-36.93L708.22-36.93Q709.50-34.30 710.98-30.08L710.98-30.08L710.98-30.08Q711.62-28.22 714.50-22.08L714.50-22.08L714.50-22.08Q715.97-19.07 716.42-17.92L716.42-17.92L716.42-17.92Q717.44-15.68 721.92-7.04L721.92-7.04L722.69-5.44L722.69-5.44Q724.16-2.18 724.93-1.28L724.93-1.28ZM708.16-22.40L708.16-22.40Q708.61-22.46 708.93-22.46L708.93-22.46L708.93-22.46Q709.25-22.46 709.44-22.53L709.44-22.53L709.44-22.53Q709.63-22.59 709.63-22.72L709.63-22.72L709.63-22.72Q709.63-22.85 709.44-23.23L709.44-23.23L709.44-23.23Q709.12-23.81 707.97-26.46L707.97-26.46L707.97-26.46Q706.82-29.12 706.37-30.46L706.37-30.46L706.37-30.46Q705.73-32 705.38-33.02L705.38-33.02L705.38-33.02Q705.02-34.05 704.83-34.43L704.83-34.43L704.83-34.43Q704.70-34.75 704.54-35.07L704.54-35.07L704.54-35.07Q704.38-35.39 704.26-35.58L704.26-35.58L704.26-35.58Q704.13-35.78 704-35.78L704-35.78L704-35.78Q703.81-35.78 703.58-34.82L703.58-34.82L703.58-34.82Q703.36-33.86 703.23-33.34L703.23-33.34L703.23-33.34Q702.08-29.63 701.57-27.71L701.57-27.71L701.57-27.71Q701.31-26.75 700.83-25.38L700.83-25.38L700.83-25.38Q700.35-24 700.16-23.49L700.16-23.49L700.16-23.49Q699.97-22.85 699.97-22.46L699.97-22.46L699.97-22.46Q699.97-22.08 700.54-22.08L700.54-22.08L700.54-22.08Q701.89-22.08 704.67-22.18L704.67-22.18L704.67-22.18Q707.46-22.27 708.16-22.40L708.16-22.40ZM731.78-45.12L731.78-45.12Q732.61-45.06 733.41-45.09L733.41-45.09L733.41-45.09Q734.21-45.12 734.78-45.12L734.78-45.12L734.78-45.12Q736.19-45.12 736.83-45.06L736.83-45.06L736.83-45.06Q737.60-44.99 737.92-44.74L737.92-44.74L737.92-44.74Q738.24-44.48 738.24-44.03L738.24-44.03L738.24-44.03Q738.24-43.71 738.18-43.33L738.18-43.33L738.18-43.33Q738.11-42.94 738.05-42.62L738.05-42.62L738.05-42.62Q737.34-37.18 737.28-31.42L737.28-31.42L737.28-31.42Q737.22-29.76 737.22-26.30L737.22-26.30L737.28-18.56L737.28-18.56Q737.34-17.60 737.34-16.58L737.34-16.58L737.41-14.02L737.41-14.02Q737.54-10.69 737.54-9.09L737.54-9.09L737.54-9.09Q737.54-7.87 737.47-7.62L737.47-7.62L737.47-7.62Q737.41-7.36 737.41-6.14L737.41-6.14L737.47-2.62L737.47-2.62Q737.54-1.86 737.54-0.70L737.54-0.70L737.54-0.70Q737.60 0.13 737.06 0.35L737.06 0.35L737.06 0.35Q736.51 0.58 735.62 0.51L735.62 0.51L729.79 0.51L729.79 0.51Q728.83 0.58 728.58 0.10L728.58 0.10L728.58 0.10Q728.32-0.38 728.26-1.47L728.26-1.47L728.26-1.47Q728.13-1.92 728.38-3.84L728.38-3.84L728.38-3.84Q728.64-5.63 728.64-6.91L728.64-6.91L728.64-6.91Q728.64-7.36 729.09-15.55L729.09-15.55L729.09-15.55Q729.47-21.57 729.47-22.14L729.47-22.14L729.60-28.42L729.73-34.24L729.86-37.70L729.98-40L729.98-42.69L729.98-42.69Q729.98-45.18 731.26-45.18L731.26-45.18L731.26-45.18Q731.58-45.18 731.78-45.12L731.78-45.12ZM795.39-1.66L795.39-1.66Q796.10-0.96 796.10-0.58L796.10-0.58L796.10-0.58Q796.10-0.19 795.26-0.19L795.26-0.19L790.53-0.26L790.53-0.26Q789.76-0.26 789.34-0.48L789.34-0.48L789.34-0.48Q788.93-0.70 788.48-1.41L788.48-1.41L786.69-3.46L786.50-3.20L786.43-3.14L786.43-3.14Q785.73-2.11 784.83-1.54L784.83-1.54L784.83-1.54Q782.14 0.13 779.26-0.06L779.26-0.06L779.26-0.06Q776.45-0.26 772.80-2.14L772.80-2.14L772.80-2.14Q769.15-4.03 766.14-9.12L766.14-9.12L766.14-9.12Q763.14-14.21 763.14-23.04L763.14-23.04L763.14-23.04Q763.14-31.81 766.11-36.83L766.11-36.83L766.11-36.83Q769.09-41.86 772.80-43.71L772.80-43.71L772.80-43.71Q776.51-45.57 779.07-45.57L779.07-45.57L779.07-45.57Q784.26-45.57 787.58-42.02L787.58-42.02L787.58-42.02Q790.91-38.46 792.42-33.06L792.42-33.06L792.42-33.06Q793.92-27.65 793.92-21.89L793.92-21.89L793.92-21.89Q793.92-15.30 789.89-8.13L789.89-8.13L789.89-8.13Q794.43-2.62 795.39-1.66L795.39-1.66ZM778.11-9.79L778.11-9.79Q779.46-9.79 780.74-10.24L780.74-10.24L780.74-10.24Q779.65-11.39 778.82-12.38L778.82-12.38L778.82-12.38Q777.98-13.38 777.79-13.63L777.79-13.63L777.79-13.63Q777.15-14.66 777.15-14.98L777.15-14.98L777.15-14.98Q777.15-15.30 777.38-15.39L777.38-15.39L777.38-15.39Q777.60-15.49 777.92-15.42L777.92-15.42L777.92-15.42Q778.05-15.36 778.50-15.36L778.50-15.36L780.61-15.49L782.66-15.62L782.66-15.62Q783.36-15.62 783.55-15.52L783.55-15.52L783.55-15.52Q783.74-15.42 783.94-15.17L783.94-15.17L783.94-15.17Q784.13-14.91 784.38-14.66L784.38-14.66L785.15-13.82L785.15-13.82Q786.43-15.94 786.43-19.07L786.43-19.07L786.50-23.74L786.50-23.74Q786.50-29.82 785.09-33.41L785.09-33.41L785.09-33.41Q783.68-36.99 779.26-36.99L779.26-36.99L779.26-36.99Q777.47-36.99 775.46-35.36L775.46-35.36L775.46-35.36Q773.44-33.73 772.03-30.62L772.03-30.62L772.03-30.62Q770.62-27.52 770.62-23.30L770.62-23.30L770.62-23.30Q770.62-19.07 771.81-16L771.81-16L771.81-16Q772.99-12.93 774.72-11.36L774.72-11.36L774.72-11.36Q776.45-9.79 778.11-9.79L778.11-9.79ZM814.78-44.67L814.78-19.07L814.78-19.07Q814.78-17.66 814.94-16.64L814.94-16.64L814.94-16.64Q815.10-15.62 815.90-14.69L815.90-14.69L815.90-14.69Q816.70-13.76 818.50-13.76L818.50-13.76L818.50-13.76Q820.99-13.76 821.89-15.65L821.89-15.65L821.89-15.65Q822.78-17.54 822.78-19.78L822.78-19.78L822.85-22.98L822.85-22.98Q823.04-30.08 823.04-30.91L823.04-30.91L823.04-30.91Q823.04-32.70 822.98-33.34L822.98-33.34L822.98-33.34Q822.98-35.58 822.72-40.19L822.72-40.19L822.59-43.71L822.59-43.71Q822.59-44.86 822.91-45.31L822.91-45.31L822.91-45.31Q823.23-45.76 824.13-45.76L824.13-45.76L832.26-45.76L833.22-45.82L833.22-45.82Q833.86-45.82 834.27-45.44L834.27-45.44L834.27-45.44Q834.69-45.06 834.82-43.90L834.82-43.90L834.82-43.90Q834.94-42.82 834.94-36.35L834.94-36.35L834.88-22.59L834.88-22.59Q834.88-19.01 833.73-13.98L833.73-13.98L833.73-13.98Q832.58-8.96 828.93-4.67L828.93-4.67L828.93-4.67Q825.28-0.38 818.50-0.38L818.50-0.38L818.50-0.38Q803.26-0.38 802.11-14.98L802.11-14.98L802.11-14.98Q802.05-15.62 802.05-17.54L802.05-17.54L802.05-17.54Q802.05-19.52 802.18-24.51L802.18-24.51L802.18-24.51Q802.37-30.27 802.30-33.09L802.30-33.09L802.30-33.09Q802.30-36.93 802.18-41.15L802.18-41.15L802.18-41.15Q802.11-42.37 802.11-43.65L802.11-43.65L802.11-43.65Q802.11-43.90 802.08-44.61L802.08-44.61L802.08-44.61Q802.05-45.31 802.34-45.63L802.34-45.63L802.34-45.63Q802.62-45.95 803.39-45.95L803.39-45.95L807.10-45.89L807.10-45.89Q808.38-45.89 808.96-45.95L808.96-45.95L808.96-45.95Q810.37-46.08 811.26-46.08L811.26-46.08L813.82-46.02L813.82-46.02Q814.40-46.02 814.56-45.73L814.56-45.73L814.56-45.73Q814.72-45.44 814.78-44.67L814.78-44.67ZM869.12-42.56L869.12-41.86L869.12-41.86Q869.12-40.38 868.86-40.38L868.86-40.38L868.86-40.38Q868.48-40.38 868-40.48L868-40.48L868-40.48Q867.52-40.58 866.82-40.58L866.82-40.58L856.58-40.58L848.64-40.64L848.64-40.64Q848.26-40.64 845.76-40.45L845.76-40.45L844.29-40.32L844.16-38.59L844.16-38.59Q844.10-37.63 844.10-35.58L844.10-35.58L844.10-35.58Q844.10-34.56 844.22-32.90L844.22-32.90L844.22-32.90Q844.35-31.36 844.35-30.66L844.35-30.66L844.35-28.10L844.35-28.10Q844.35-27.07 844.42-26.50L844.42-26.50L844.42-26.50Q844.99-26.43 846.14-26.43L846.14-26.43L848.70-26.43L848.70-26.43Q849.09-26.43 850.24-26.56L850.24-26.56L850.24-26.56Q851.90-26.69 853.12-26.69L853.12-26.69L853.12-26.69Q853.63-26.69 856.70-26.50L856.70-26.50L858.11-26.43L858.11-26.43Q858.62-26.43 859.58-26.53L859.58-26.53L859.58-26.53Q860.54-26.62 861.44-26.62L861.44-26.62L863.55-26.56L863.55-26.56Q865.22-26.43 865.86-26.43L865.86-26.43L865.86-26.43Q866.56-26.43 866.82-26.50L866.82-26.50L867.20-26.56L867.20-26.56Q867.65-26.56 867.84-26.27L867.84-26.27L867.84-26.27Q868.03-25.98 867.97-25.73L867.97-25.73L867.97-25.73Q867.90-25.28 867.90-24.61L867.90-24.61L867.90-24.61Q867.90-23.94 867.84-23.42L867.84-23.42L867.84-23.42Q867.78-22.91 867.65-22.82L867.65-22.82L867.65-22.82Q867.52-22.72 866.88-22.72L866.88-22.72L864.32-22.98L864.32-22.98Q859.52-23.42 858.05-23.42L858.05-23.42L858.05-23.42Q852.61-23.42 850.05-23.23L850.05-23.23L850.05-23.23Q849.02-23.10 847.81-23.10L847.81-23.10L847.81-23.10Q846.59-23.10 846.27-23.10L846.27-23.10L846.27-23.10Q845.06-23.10 844.48-23.17L844.48-23.17L844.29-22.14L844.29-22.14Q844.16-20.99 844.16-20.10L844.16-20.10L844.16-20.10Q844.16-19.33 844.29-18.30L844.29-18.30L844.29-18.30Q844.42-17.28 844.42-16.51L844.42-16.51L844.48-8.90L844.42-5.70L844.42-5.70Q844.35-5.12 844.35-4.10L844.35-4.10L844.35-4.10Q845.18-4.03 846.78-4.03L846.78-4.03L846.78-4.03Q848.13-3.97 850.94-3.97L850.94-3.97L854.40-3.90L854.40-3.90Q855.49-3.84 857.73-3.84L857.73-3.84L857.73-3.84Q859.07-3.84 861.25-3.97L861.25-3.97L863.94-4.03L863.94-4.03Q865.47-4.03 866.50-3.97L866.50-3.97L866.50-3.97Q867.52-3.90 868.03-3.90L868.03-3.90L868.03-3.90Q868.54-3.90 868.64-3.71L868.64-3.71L868.64-3.71Q868.74-3.52 868.74-2.88L868.74-2.88L868.74-2.88Q868.74-2.43 868.67-1.95L868.67-1.95L868.67-1.95Q868.61-1.47 868.61-0.90L868.61-0.90L868.61-0.90Q868.61-0.45 868.29-0.29L868.29-0.29L868.29-0.29Q867.97-0.13 867.26-0.13L867.26-0.13L867.26-0.13Q866.56-0.13 866.11-0.19L866.11-0.19L866.11-0.19Q864.38-0.38 859.14-0.38L859.14-0.38L859.14-0.38Q855.94-0.38 854.53-0.32L854.53-0.32L854.53-0.32Q853.44-0.26 850.94-0.26L850.94-0.26L844.99-0.32L844.99-0.32Q843.97-0.38 842.56-0.38L842.56-0.38L842.56-0.38Q841.66-0.38 841.38-0.61L841.38-0.61L841.38-0.61Q841.09-0.83 841.09-1.34L841.09-1.34L841.15-2.37L841.15-2.37Q841.22-2.62 841.22-2.94L841.22-2.94L841.22-2.94Q841.22-3.14 841.15-3.87L841.15-3.87L841.15-3.87Q841.09-4.61 841.09-6.59L841.09-6.59L841.09-6.59Q841.09-8.51 840.96-12.86L840.96-12.86L840.96-12.86Q840.77-16.45 840.77-19.78L840.77-19.78L840.77-19.78Q840.77-21.18 841.09-27.90L841.09-27.90L841.09-27.90Q841.15-29.25 841.22-30.59L841.22-30.59L841.22-30.59Q841.28-31.94 841.28-33.02L841.28-33.02L841.28-33.02Q841.28-40.45 841.09-42.82L841.09-42.82L841.09-42.82Q840.90-44.35 842.94-44.35L842.94-44.35L842.94-44.35Q843.46-44.35 844.61-44.22L844.61-44.22L844.61-44.22Q845.63-44.10 846.14-44.10L846.14-44.10L850.18-44.22L850.18-44.22Q854.53-44.48 856.90-44.48L856.90-44.48L856.90-44.48Q859.65-44.48 864.64-44.35L864.64-44.35L864.64-44.35Q866.24-44.29 868.03-44.29L868.03-44.29L868.03-44.29Q868.80-44.29 868.99-43.90L868.99-43.90L868.99-43.90Q869.18-43.52 869.15-43.10L869.15-43.10L869.15-43.10Q869.12-42.69 869.12-42.56L869.12-42.56ZM892.54-21.63L892.54-21.63Q892.48-22.34 895.49-25.28L895.49-25.28L895.49-25.28Q899.01-28.67 900.54-30.08L900.54-30.08L900.54-30.08Q901.63-31.17 904.19-33.02L904.19-33.02L904.19-33.02Q905.02-33.60 905.86-34.24L905.86-34.24L905.86-34.24Q906.69-34.88 907.26-35.58L907.26-35.58L908.29-36.86L908.29-36.86Q909.31-38.21 909.95-38.85L909.95-38.85L909.95-38.85Q910.59-39.49 911.10-39.49L911.10-39.49L914.56-39.49L914.56-39.49Q917.31-39.55 918.27-39.30L918.27-39.30L918.27-39.30Q919.42-39.04 919.42-38.21L919.42-38.21L919.42-38.21Q919.42-38.02 919.30-37.63L919.30-37.63L919.30-37.63Q918.14-35.97 917.28-34.98L917.28-34.98L917.28-34.98Q916.42-33.98 914.82-32.58L914.82-32.58L914.82-32.58Q913.15-31.10 912.26-30.08L912.26-30.08L912.26-30.08Q912.26-30.08 910.40-28.22L910.40-28.22L908.93-26.75L908.93-26.75Q906.75-24.77 905.54-24L905.54-24L905.54-24Q904.19-23.04 902.91-21.44L902.91-21.44L902.91-21.44Q903.87-20.22 905.09-19.01L905.09-19.01L907.78-16.45L907.78-16.45Q910.34-13.76 911.81-12.61L911.81-12.61L911.81-12.61Q913.34-11.46 915.01-9.60L915.01-9.60L915.01-9.60Q916.54-7.94 917.60-6.94L917.60-6.94L917.60-6.94Q918.66-5.95 918.85-5.70L918.85-5.70L918.85-5.70Q919.23-5.12 919.23-4.74L919.23-4.74L919.23-4.74Q919.23-4.22 918.66-4.03L918.66-4.03L918.66-4.03Q918.53-4.03 917.98-4L917.98-4L917.98-4Q917.44-3.97 915.52-3.97L915.52-3.97L915.52-3.97Q913.34-3.97 912.35-3.94L912.35-3.94L912.35-3.94Q911.36-3.90 911.10-3.90L911.10-3.90L911.10-3.90Q910.59-3.90 909.63-5.06L909.63-5.06L909.63-5.06Q909.25-5.63 908.67-6.21L908.67-6.21L908.67-6.21Q907.78-7.17 906.62-8.26L906.62-8.26L904.83-10.11L904.83-10.11Q903.87-11.07 902.46-12.16L902.46-12.16L902.46-12.16Q897.98-16.06 896-17.47L896-17.47L896-17.47Q892.29-19.90 892.54-21.63L892.54-21.63ZM930.37-45.18L930.37-45.18Q931.58-45.18 934.40-45.44L934.40-45.44L934.40-45.44Q937.47-45.70 939.33-45.70L939.33-45.70L946.30-45.63L946.30-45.63Q947.26-45.57 948.29-45.57L948.29-45.57L948.29-45.57Q948.86-45.57 948.96-44.99L948.96-44.99L948.96-44.99Q949.06-44.42 949.06-42.69L949.06-42.69L948.99-34.82L948.99-34.82Q948.99-34.11 948.64-33.66L948.64-33.66L948.64-33.66Q948.29-33.22 947.68-32.74L947.68-32.74L947.68-32.74Q947.07-32.26 946.69-31.94L946.69-31.94L946.69-31.94Q944.96-30.72 939.97-26.88L939.97-26.88L939.97-26.88Q939.58-26.50 939.04-26.08L939.04-26.08L939.04-26.08Q938.50-25.66 937.92-25.15L937.92-25.15L937.92-25.15Q937.66-24.96 937.31-24.67L937.31-24.67L937.31-24.67Q936.96-24.38 936.45-24.06L936.45-24.06L936.45-24.06Q935.68-23.62 935.68-23.23L935.68-23.23L935.68-23.23Q935.68-22.98 935.87-22.98L935.87-22.98L935.87-22.98Q936-22.98 936.70-23.01L936.70-23.01L936.70-23.01Q937.41-23.04 938.43-22.98L938.43-22.98L938.43-22.98Q939.90-22.98 942.18-22.82L942.18-22.82L942.18-22.82Q944.45-22.66 945.41-22.53L945.41-22.53L945.41-22.53Q946.62-22.40 948.19-21.54L948.19-21.54L948.19-21.54Q949.76-20.67 951.07-18.56L951.07-18.56L951.07-18.56Q952.38-16.45 952.38-12.93L952.38-12.93L952.38-12.93Q952.38-10.05 951.62-7.94L951.62-7.94L951.62-7.94Q951.49-7.62 950.94-5.98L950.94-5.98L950.94-5.98Q950.40-4.35 949.44-3.10L949.44-3.10L949.44-3.10Q948.48-1.86 947.07-0.90L947.07-0.90L947.07-0.90Q944.64 0.51 943.10 1.02L943.10 1.02L943.10 1.02Q940.93 1.86 934.98 1.86L934.98 1.86L934.98 1.86Q932.29 1.86 930.05-0.10L930.05-0.10L930.05-0.10Q927.81-2.05 926.46-4.32L926.46-4.32L926.46-4.32Q925.12-6.59 924.61-7.94L924.61-7.94L924.61-7.94Q924.29-8.51 924.29-8.96L924.29-8.96L924.29-8.96Q924.29-9.28 924.51-9.38L924.51-9.38L924.51-9.38Q924.74-9.47 924.80-9.54L924.80-9.54L924.80-9.54Q924.86-9.66 925.41-9.92L925.41-9.92L925.41-9.92Q925.95-10.18 926.14-10.24L926.14-10.24L926.14-10.24Q926.27-10.30 926.46-10.30L926.46-10.30L926.46-10.30Q926.98-10.30 927.17-9.41L927.17-9.41L927.17-9.41Q927.30-9.15 927.78-7.68L927.78-7.68L927.78-7.68Q928.26-6.21 929.47-4.35L929.47-4.35L929.47-4.35Q930.69-2.50 932.93-1.38L932.93-1.38L932.93-1.38Q935.17-0.26 938.18-0.26L938.18-0.26L938.18-0.26Q940.35-0.26 942.18-0.96L942.18-0.96L942.18-0.96Q944-1.66 945.09-2.24L945.09-2.24L945.09-2.24Q946.18-2.82 946.43-2.94L946.43-2.94L946.43-2.94Q947.14-3.39 948.10-4.74L948.10-4.74L948.10-4.74Q949.06-6.08 949.76-8.22L949.76-8.22L949.76-8.22Q950.46-10.37 950.46-12.93L950.46-12.93L950.46-12.93Q950.21-17.02 947.58-19.20L947.58-19.20L947.58-19.20Q945.66-20.80 940.80-20.80L940.80-20.80L940.80-20.80Q938.82-20.80 933.89-20.10L933.89-20.10L933.89-20.10Q932.22-19.84 931.01-19.84L931.01-19.84L930.88-19.84L930.88-19.84Q930.56-19.84 930.43-20.22L930.43-20.22L930.43-20.22Q930.37-20.54 930.37-21.44L930.37-21.44L930.37-21.44Q930.37-21.63 930.56-21.86L930.56-21.86L930.56-21.86Q930.75-22.08 931.04-22.30L931.04-22.30L931.04-22.30Q931.33-22.53 931.71-22.85L931.71-22.85L931.71-22.85Q932.22-23.36 936.54-26.88L936.54-26.88L936.54-26.88Q940.86-30.40 943.10-32.19L943.10-32.19L943.10-32.19Q943.36-32.45 943.36-32.64L943.36-32.64L943.36-32.64Q943.36-33.09 941.44-33.09L941.44-33.09L941.44-33.09Q940.67-33.02 935.42-32.96L935.42-32.96L935.42-32.96Q930.18-32.90 926.85-32.83L926.85-32.83L926.85-32.83Q926.14-32.83 925.98-33.22L925.98-33.22L925.98-33.22Q925.82-33.60 925.86-34.21L925.86-34.21L925.86-34.21Q925.89-34.82 925.89-35.07L925.89-35.07L925.95-40.96L925.89-44.16L925.89-44.16Q925.89-45.44 927.42-45.44L927.42-45.44L927.42-45.44Q927.81-45.44 928.83-45.31L928.83-45.31L928.83-45.31Q929.86-45.18 930.37-45.18L930.37-45.18Z" fill="#ffd5af"></path></g></g><style>text {
  font-size: 64px;
  font-family: Arial Black;
  dominant-baseline: central;
  text-anchor: middle;
}</style></svg>